<svg width="64" height="64" xmlns="http://www.w3.org/2000/svg">
 <title/>

 <g>
  <title>background</title>
  <rect fill="none" id="canvas_background" height="402" width="582" y="-1" x="-1"/>
 </g>
 <g>
  <title>Layer 1</title>
  <path fill="#0a993c" id="svg_1" d="m32,49.33a1.49,1.49 0 0 1 -0.85,-0.26a17.6,17.6 0 0 0 -4.28,-2.14a19.6,19.6 0 0 0 -4.42,-0.93a15.76,15.76 0 0 1 -5.23,-1.27a15.14,15.14 0 0 1 -4.91,-3.68a1.5,1.5 0 0 1 -0.39,-1l0,-21.19a1.5,1.5 0 0 1 2.37,-1.23a15.51,15.51 0 0 0 4.24,2.12a19.33,19.33 0 0 0 5.53,0.79c2.29,0.09 4.45,0.17 6.54,1.77a7.69,7.69 0 0 1 2.9,6.09l0,19.43a1.5,1.5 0 0 1 -1.5,1.5zm-17.08,-9.83a11.91,11.91 0 0 0 3.55,2.5a12.92,12.92 0 0 0 4.31,1a22.36,22.36 0 0 1 5.05,1a20.36,20.36 0 0 1 2.66,1.12l0,-16.72a4.66,4.66 0 0 0 -1.71,-3.69c-1.35,-1 -2.82,-1.09 -4.84,-1.17a22.12,22.12 0 0 1 -6.33,-0.93a18.18,18.18 0 0 1 -2.69,-1.1l0,17.99z"/>
  <path fill="#0a993c" id="svg_2" d="m32,49.33a1.5,1.5 0 0 1 -1.5,-1.5l0,-19.43a7.68,7.68 0 0 1 2.88,-6.06c2.12,-1.63 4.28,-1.71 6.57,-1.79a19.33,19.33 0 0 0 5.53,-0.79a15.51,15.51 0 0 0 4.24,-2.12a1.5,1.5 0 0 1 2.37,1.23l0,21.22a1.5,1.5 0 0 1 -0.39,1a15.14,15.14 0 0 1 -4.91,3.68a15.76,15.76 0 0 1 -5.24,1.23a19.6,19.6 0 0 0 -4.43,0.89a17.6,17.6 0 0 0 -4.28,2.14a1.49,1.49 0 0 1 -0.84,0.3zm17.08,-27.82a18.18,18.18 0 0 1 -2.69,1.1a22.12,22.12 0 0 1 -6.33,0.93c-2,0.08 -3.49,0.13 -4.82,1.15a4.67,4.67 0 0 0 -1.74,3.71l0,16.8a20.36,20.36 0 0 1 2.66,-1.12a22.36,22.36 0 0 1 5.05,-1a12.92,12.92 0 0 0 4.31,-1a11.91,11.91 0 0 0 3.55,-2.55l0.01,-18.02z"/>
  <path fill="#0a993c" id="svg_3" d="m32,54.5a17.31,17.31 0 0 1 -3.92,-0.45c-1.47,-0.34 -2.92,-0.71 -4.31,-1.1a70.12,70.12 0 0 1 -10.31,-3.48a53.84,53.84 0 0 1 -5.2,-2.63a1.5,1.5 0 0 1 -0.75,-1.3l0,-17.85a1.5,1.5 0 0 1 2.26,-1.29a19.58,19.58 0 0 0 3.35,1.6a1.5,1.5 0 1 1 -1,2.82q-0.81,-0.29 -1.6,-0.65l0,14.51c1.34,0.74 2.73,1.43 4.16,2.06a67.74,67.74 0 0 0 9.9,3.33c1.36,0.37 2.77,0.73 4.2,1.07a14.48,14.48 0 0 0 6.49,0c1.43,-0.33 2.84,-0.69 4.19,-1.07a67.68,67.68 0 0 0 9.91,-3.33c1.43,-0.63 2.82,-1.32 4.16,-2.06l0,-14.53q-0.79,0.35 -1.6,0.65a1.5,1.5 0 1 1 -1,-2.82a19.58,19.58 0 0 0 3.35,-1.58a1.5,1.5 0 0 1 2.27,1.29l0,17.86a1.5,1.5 0 0 1 -0.75,1.3a53.84,53.84 0 0 1 -5.2,2.63a70.06,70.06 0 0 1 -10.37,3.52c-1.39,0.38 -2.84,0.75 -4.31,1.1a17.32,17.32 0 0 1 -3.92,0.4z"/>
  <path fill="#0a993c" id="svg_4" d="m32,16.5a4.5,4.5 0 0 1 0,-9a1.5,1.5 0 0 1 0,3a1.5,1.5 0 1 0 1.42,2a1.5,1.5 0 0 1 2.83,1a4.51,4.51 0 0 1 -4.25,3z"/>
  <path fill="#0a993c" id="svg_5" d="m9,52.5a1.5,1.5 0 0 1 -0.75,-2.8l5.05,-2.89a1.5,1.5 0 0 1 1.49,2.6l-5.04,2.89a1.49,1.49 0 0 1 -0.75,0.2z"/>
  <path fill="#0a993c" id="svg_6" d="m56,52.5a1.49,1.49 0 0 1 -0.74,-0.2l-5.06,-2.89a1.5,1.5 0 0 1 1.49,-2.6l5.05,2.89a1.5,1.5 0 0 1 -0.74,2.8z"/>
 </g>
</svg>