<svg width="64" height="64" xmlns="http://www.w3.org/2000/svg">

 <g>
  <title>background</title>
  <rect fill="none" id="canvas_background" height="402" width="582" y="-1" x="-1"/>
 </g>
 <g>
  <title>Layer 1</title>
  <path id="svg_2" fill="#0a993c" d="m28.50488,32.8252c0.00025,-0.00025 0.00031,-0.00062 0.00055,-0.00086l5.91394,-5.91382c0.00019,-0.00018 0.00037,-0.00018 0.00055,-0.00036l6.68848,-6.68848c0.00006,-0.00006 0,-0.00006 0.00006,-0.00012l3.75482,-3.75476c0.10059,-0.10108 0.1543,-0.24024 0.14551,-0.38282c-0.00781,-0.14257 -0.07715,-0.2749 -0.18945,-0.36328c-3.69532,-2.91552 -8.12793,-4.45654 -12.81934,-4.45654c-11.43359,0 -20.73633,9.30225 -20.73633,20.73584c0,4.69043 1.54102,9.12354 4.45703,12.81885c0.08887,0.1123 0.22071,0.18115 0.36328,0.18945c0.00977,0.00049 0.01954,0.00098 0.0293,0.00098c0.13184,0 0.25977,-0.05225 0.35352,-0.14649l11.24286,-11.24267l0.79522,-0.79492zm-1.86639,0.45202l-0.61994,0.61975l0,-5.73681c0,-0.1958 -0.11425,-0.37403 -0.29296,-0.45508c-0.86133,-0.39209 -1.58301,-1.22363 -2.03907,-2.32764l1.85846,0c0.00171,0 0.00312,0.00098 0.00482,0.00098s0.00312,-0.00098 0.00483,-0.00098l2.55969,0c0.00171,0 0.00311,0.00098 0.00482,0.00098s0.00311,-0.00098 0.00482,-0.00098l1.85944,0c-0.45606,1.10401 -1.17774,1.93555 -2.03906,2.32764c-0.17871,0.08105 -0.29297,0.25928 -0.29297,0.45508l0,4.10418l-1.01288,1.01288zm6.86151,-10.52234c0,-2.86621 1.64648,-5.19824 3.66992,-5.19824c1.19629,0 2.29395,0.81787 2.98438,2.20459l-5.98047,5.98047c-0.4375,-0.87402 -0.67383,-1.9126 -0.67383,-2.98682zm-17.33691,20.99756c-2.55371,-3.42529 -3.89942,-7.47607 -3.89942,-11.75244c0,-10.88232 8.85352,-19.73584 19.73633,-19.73584c4.27734,0 8.32813,1.3457 11.75293,3.89893l-2.86078,2.86077c-0.87378,-1.55621 -2.2262,-2.46722 -3.72223,-2.46722c-2.57519,0 -4.66992,2.78076 -4.66992,6.19824c0,1.3468 0.34534,2.63971 0.94989,3.71106l-4.79852,4.79846l0,-2.7976c1.13141,-0.63263 2.026,-1.8479 2.49273,-3.38605c0.00293,-0.00653 0.00495,-0.01306 0.00757,-0.01971c0.00452,-0.01496 0.0119,-0.02747 0.0163,-0.04249c0.00519,-0.01751 -0.00025,-0.0354 0.00299,-0.0531c0.00537,-0.02935 0.01752,-0.05615 0.01752,-0.08703l0,-7.58643c0,-0.27637 -0.22364,-0.5 -0.5,-0.5s-0.5,0.22363 -0.5,0.5l0,7.08545l-1.56934,0l0,-7.08545c0,-0.27637 -0.22363,-0.5 -0.5,-0.5s-0.5,0.22363 -0.5,0.5l0,7.08545l-1.56934,0l0,-7.08545c0,-0.27637 -0.22363,-0.5 -0.5,-0.5s-0.5,0.22363 -0.5,0.5l0,7.08545l-1.56835,0l0,-7.08545c0,-0.27637 -0.22364,-0.5 -0.5,-0.5s-0.5,0.22363 -0.5,0.5l0,7.58643c0,0.03088 0.01214,0.05768 0.01751,0.08703c0.00324,0.0177 -0.00219,0.03559 0.00299,0.0531c0.0044,0.01502 0.01178,0.02753 0.0163,0.04249c0.00262,0.00665 0.00464,0.01318 0.00757,0.01971c0.46673,1.53815 1.36133,2.75342 2.49273,3.38605l0,6.43036l-8.85546,8.85528z"/>
  <path id="svg_3" fill="#0a993c" d="m32,6.5c-14.06055,0 -25.5,11.43945 -25.5,25.5s11.43945,25.5 25.5,25.5s25.5,-11.43945 25.5,-25.5s-11.43945,-25.5 -25.5,-25.5zm0,50c-13.50977,0 -24.5,-10.99072 -24.5,-24.5s10.99023,-24.5 24.5,-24.5s24.5,10.99072 24.5,24.5s-10.99023,24.5 -24.5,24.5z"/>
  <path id="svg_4" fill="#0a993c" d="m48.2793,19.18115c-0.08887,-0.1123 -0.22071,-0.18115 -0.36328,-0.18945c-0.14649,-0.00537 -0.28223,0.04443 -0.38282,0.14551l-11.24286,11.24267l-0.79522,0.79492c-0.00025,0.00025 -0.00031,0.00062 -0.00055,0.00086l-10.0365,10.03632l-0.29303,0.2929c-0.00006,0.00006 -0.00012,0.00025 -0.00018,0.00031l-6.02814,6.02801c-0.10059,0.10108 -0.1543,0.24024 -0.14551,0.38282c0.00781,0.14257 0.07715,0.2749 0.18945,0.36328c3.69532,2.91552 8.12793,4.45654 12.81934,4.45654c11.43359,0 20.73633,-9.30225 20.73633,-20.73584c0,-4.69043 -1.54102,-9.12354 -4.45703,-12.81885zm-10.29785,10.92188l0,15.88769c0,0.44483 -0.37207,0.8208 -0.81153,0.8208c-0.45312,0 -0.82129,-0.36816 -0.82129,-0.8208l0,-14.25506l1.01288,-1.01288l0.61994,-0.61975zm-10.33008,10.33008l0,5.55761c0,0.45264 -0.36817,0.8208 -0.82129,0.8208c-0.43946,0 -0.81153,-0.37597 -0.81153,-0.8208l0,-3.92517l0.36304,-0.36304l1.26978,-1.2694zm4.34863,11.30273c-4.27734,0 -8.32812,-1.3457 -11.75293,-3.89893l4.77148,-4.77142l0,2.92523c0,1.00391 0.8125,1.8208 1.81153,1.8208c1.0039,0 1.82129,-0.81689 1.82129,-1.8208l0,-6.55798l6.69726,-6.69714l0,13.25512c0,1.00391 0.81739,1.8208 1.82129,1.8208c0.99903,0 1.81153,-0.81689 1.81153,-1.8208l0,-16.88788l8.85546,-8.85528c2.55372,3.42529 3.89942,7.47607 3.89942,11.75244c0,10.88232 -8.85352,19.73584 -19.73633,19.73584z"/>
 </g>
</svg>