<svg width="32" height="32" xmlns="http://www.w3.org/2000/svg">

 <g>
  <title>background</title>
  <rect fill="none" id="canvas_background" height="402" width="582" y="-1" x="-1"/>
 </g>
 <g>
  <title>Layer 1</title>
  <path fill="#0a993c" id="svg_1" d="m16,30c-0.1,0 -0.3,0 -0.4,-0.1l-13,-6c-0.4,-0.2 -0.6,-0.5 -0.6,-0.9l0,-14c0,-0.6 0.4,-1 1,-1s1,0.4 1,1l0,13.4l12,5.5l12,-5.5l0,-13.4c0,-0.6 0.4,-1 1,-1s1,0.4 1,1l0,14c0,0.4 -0.2,0.7 -0.6,0.9l-13,6c-0.1,0.1 -0.3,0.1 -0.4,0.1z"/>
  <path fill="#0a993c" id="svg_2" d="m16,11.9c-0.1,0 -0.3,0 -0.4,-0.1l-5,-2.1c-0.4,-0.1 -0.6,-0.4 -0.6,-0.8s0.2,-0.8 0.6,-0.9l5,-2.1c0.2,-0.1 0.5,-0.1 0.8,0l5,2.1c0.4,0.1 0.6,0.5 0.6,0.9s-0.2,0.8 -0.6,0.9l-5,2.1c-0.1,0 -0.3,0 -0.4,0zm-2.4,-3l2.4,1l2.4,-1l-2.4,-1l-2.4,1z"/>
  <path fill="#0a993c" id="svg_3" d="m16,30c-0.6,0 -1,-0.4 -1,-1l0,-14c0,-0.6 0.4,-1 1,-1s1,0.4 1,1l0,14c0,0.6 -0.4,1 -1,1z"/>
  <path fill="#0a993c" id="svg_4" d="m16,16c-0.1,0 -0.3,0 -0.4,-0.1l-13,-6c-0.5,-0.2 -0.7,-0.8 -0.5,-1.3c0.2,-0.5 0.8,-0.7 1.3,-0.5l12.6,5.8l12.6,-5.8c0.5,-0.2 1.1,0 1.3,0.5c0.2,0.5 0,1.1 -0.5,1.3l-13,6c-0.1,0.1 -0.3,0.1 -0.4,0.1z"/>
  <path fill="#0a993c" id="svg_5" d="m29,9.9c-0.1,0 -0.3,0 -0.4,-0.1l-12.6,-5.8l-12.6,5.8c-0.5,0.2 -1.1,0 -1.3,-0.5c-0.2,-0.5 0,-1.1 0.5,-1.3l13,-6c0.3,-0.1 0.6,-0.1 0.8,0l13,6c0.5,0.2 0.7,0.8 0.5,1.3c-0.2,0.4 -0.5,0.6 -0.9,0.6z"/>
  <path fill="#0a993c" id="svg_6" d="m16,19.7c-0.1,0 -0.3,0 -0.4,-0.1l-13,-6c-0.5,-0.2 -0.7,-0.8 -0.5,-1.3c0.2,-0.5 0.8,-0.7 1.3,-0.5l12.6,5.8l12.6,-5.8c0.5,-0.2 1.1,0 1.3,0.5c0.2,0.5 0,1.1 -0.5,1.3l-13,6c-0.1,0.1 -0.3,0.1 -0.4,0.1z"/>
  <path fill="#0a993c" id="svg_7" d="m16,23.1c-0.1,0 -0.3,0 -0.4,-0.1l-13,-6c-0.5,-0.2 -0.7,-0.8 -0.5,-1.3c0.2,-0.5 0.8,-0.7 1.3,-0.5l13,6c0.5,0.2 0.7,0.8 0.5,1.3c-0.2,0.4 -0.5,0.6 -0.9,0.6zm9.3,-4.3c-0.4,0 -0.7,-0.2 -0.9,-0.6c-0.2,-0.5 0,-1.1 0.5,-1.3l3.7,-1.7c0.5,-0.2 1.1,0 1.3,0.5s0,1.1 -0.5,1.3l-3.7,1.7c-0.1,0.1 -0.2,0.1 -0.4,0.1z"/>
  <path fill="#0a993c" id="svg_8" d="m19,28c-0.6,0 -1,-0.4 -1,-1l0,-6c0,-0.4 0.2,-0.7 0.6,-0.9l4,-2c0.3,-0.2 0.7,-0.1 1,0c0.3,0.2 0.5,0.5 0.5,0.9l0,6.2c0,0.6 -0.4,1 -1,1s-1,-0.4 -1,-1l0,-4.6l-2,1l0,5.4c-0.1,0.6 -0.5,1 -1.1,1z"/>
 </g>
</svg>